<?xml version="1.0" standalone="no"?>
<!DOCTYPE svg PUBLIC "-//W3C//DTD SVG 20010904//EN" "http://www.w3.org/TR/2001/REC-SVG-20010904/DTD/svg10.dtd">
<svg version="1.0" xmlns="http://www.w3.org/2000/svg" width="512.000000pt" height="512.000000pt" viewBox="0 0 512.000000 512.000000" preserveAspectRatio="xMidYMid meet">
<metadata>
Created by potrace 1.14, written by Peter Selinger 2001-2017
</metadata>
<g transform="translate(0.000000,512.000000) scale(0.100000,-0.100000)" fill="#000000" stroke="none">
<path d="M2213 5100 c-51 -31 -68 -84 -42 -132 6 -11 81 -104 166 -207 224 -269 276 -387 275 -621 -1 -170 -41 -306 -130 -437 -57 -84 -103 -128 -307 -298 -289 -240 -389 -351 -431 -477 -20 -62 -15 -138 14 -194 11 -22 58 -84 104 -139 45 -55 255 -306 466 -558 348 -416 404 -487 389 -487 -2 0 -36 13 -76 30 -251 103 -538 172 -727 174 -115 1 -123 0 -179 -29 -52 -26 -63 -38 -89 -88 -71 -139 -36 -396 98 -731 106 -262 274 -564 438 -783 84 -114 93 -123 124 -123 23 0 37 6 44 19 17 33 11 59 -24 108 -110 155 -170 379 -171 633 0 211 28 312 109 393 61 62 116 80 248 85 237 8 515 -86 670 -227 94 -86 120 -96 178 -66 50 26 75 99 50 145 -5 10 -156 191 -335 402 -350 413 -386 463 -427 615 -16 60 -21 109 -22 208 -1 149 19 237 80 359 68 135 117 188 369 396 222 183 344 309 391 406 33 66 39 88 39 143 0 55 -5 75 -30 118 -28 48 -1079 1311 -1132 1361 -30 28 -86 29 -130 2z"/>
</g>
</svg>
